<svg id="Layer_1" data-name="Layer 1" xmlns="http://www.w3.org/2000/svg" viewBox="0 0 126.82 40.22"><defs><style>.cls-1{fill:#fff;}.cls-2{fill:#e35425;}.cls-3{fill:#ed1c24;}</style></defs><title>webrtc</title><rect class="cls-1" x="2.75" y="2.54" width="47.14" height="35.32" rx="4.85"/><path class="cls-2" d="M26.33,28.68l-10-17h20Z"/><rect class="cls-3" x="53.73" y="2.54" width="70.56" height="35.32" rx="4.85"/><path class="cls-1" d="M61.16,28.59a.4.4,0,0,1-.09-.27V12.08a.38.38,0,0,1,.09-.27.41.41,0,0,1,.27-.1H63a.41.41,0,0,1,.27.1.38.38,0,0,1,.09.27V26.55c0,.08,0,.12.13.12h8.21a.37.37,0,0,1,.27.1.33.33,0,0,1,.1.27v1.28a.36.36,0,0,1-.1.27.37.37,0,0,1-.27.09H61.43A.4.4,0,0,1,61.16,28.59Z"/><path class="cls-1" d="M78.38,28.59a.36.36,0,0,1-.1-.27V12.08a.35.35,0,0,1,.1-.27.36.36,0,0,1,.26-.1h1.6a.37.37,0,0,1,.27.1.35.35,0,0,1,.1.27V28.32a.36.36,0,0,1-.1.27.37.37,0,0,1-.27.09h-1.6A.36.36,0,0,1,78.38,28.59Z"/><path class="cls-1" d="M92,28.39,86.81,12.13a.61.61,0,0,1,0-.15c0-.18.11-.27.34-.27h1.72a.44.44,0,0,1,.27.09.3.3,0,0,1,.14.23l4,13.21c0,.07,0,.1.07.1s.06,0,.08-.1l4-13.21a.3.3,0,0,1,.14-.23.44.44,0,0,1,.27-.09h1.67c.29,0,.4.14.32.42L94.55,28.39a.39.39,0,0,1-.41.29H92.37A.4.4,0,0,1,92,28.39Z"/><path class="cls-1" d="M116.85,13.63a.36.36,0,0,1-.26.1h-8.46a.11.11,0,0,0-.12.12V19a.11.11,0,0,0,.12.12h5.77a.33.33,0,0,1,.26.1.33.33,0,0,1,.1.27v1.28a.36.36,0,0,1-.1.27.36.36,0,0,1-.26.09h-5.77c-.08,0-.12.05-.12.13v5.28a.11.11,0,0,0,.12.12h8.46a.36.36,0,0,1,.26.1.33.33,0,0,1,.1.27v1.28a.36.36,0,0,1-.1.27.36.36,0,0,1-.26.09H106a.32.32,0,0,1-.36-.36V12.08a.38.38,0,0,1,.09-.27.41.41,0,0,1,.27-.1h10.55a.36.36,0,0,1,.26.1.35.35,0,0,1,.1.27v1.28A.35.35,0,0,1,116.85,13.63Z"/></svg>